<svg id="Layer_1" data-name="Layer 1" xmlns="http://www.w3.org/2000/svg" viewBox="0 0 157.22 346.45">
  <defs>
    <style>
      .cls-1 {
        fill: none;
        stroke: #000;
        stroke-miterlimit: 10;
        stroke-width: 0.5px;
      }

      .cls-2 {
        fill: #badaf3;
      }

      .cls-3 {
        fill: #4688c8;
      }

      .cls-4 {
        fill: #e0effb;
      }

      .cls-5 {
        font-size: 12px;
        fill: #231f20;
        font-family: MyriadPro-Regular, Myriad Pro;
      }

      .cls-6 {
        letter-spacing: -0.01em;
      }

      .cls-7 {
        letter-spacing: -0.01em;
      }

      .cls-8 {
        letter-spacing: 0em;
      }

      .cls-9 {
        letter-spacing: -0.01em;
      }

      .cls-10 {
        letter-spacing: 0.02em;
      }

      .cls-11 {
        letter-spacing: -0.01em;
      }

      .cls-12 {
        letter-spacing: -0.01em;
      }

      .cls-13 {
        letter-spacing: -0.07em;
      }

      .cls-14 {
        letter-spacing: 0em;
      }

      .cls-15 {
        letter-spacing: -0.01em;
      }

      .cls-16 {
        letter-spacing: 0em;
      }

      .cls-17 {
        letter-spacing: 0.03em;
      }

      .cls-18 {
        letter-spacing: 0.02em;
      }

      .cls-19 {
        letter-spacing: -0.01em;
      }

      .cls-20 {
        letter-spacing: 0em;
      }

      .cls-21 {
        letter-spacing: 0.01em;
      }
    </style>
  </defs>
  <title>folder</title>
  <line class="cls-1" x1="5.81" y1="339.07" x2="26.62" y2="339.07"/>
  <line class="cls-1" x1="5.81" y1="26.5" x2="26.62" y2="26.5"/>
  <g>
    <path class="cls-2" d="M224.32,232.48V223h3.15l.92.91h7.25v8.57Z" transform="translate(-224.17 -222.54)"/>
    <path class="cls-3" d="M227.41,223.15l.83.83.09.09h7.16v8.26h-11v-9.18h2.93m.13-.31h-3.37v9.79H235.8v-8.87h-7.35l-.91-.92Z" transform="translate(-224.17 -222.54)"/>
    <path class="cls-4" d="M224.32,232.48v-7.95h3.26l.92-.62h7.14v8.57Z" transform="translate(-224.17 -222.54)"/>
    <path class="cls-3" d="M235.49,224.07v8.26h-11v-7.65h3.15l.08-.05.84-.56h6.94m.31-.31h-7.35l-.91.61h-3.37v8.26H235.8v-8.87Z" transform="translate(-224.17 -222.54)"/>
  </g>
  <text class="cls-5" transform="translate(15.23 10.04)"><tspan class="cls-6">t</tspan><tspan x="3.9" y="0">oolb</tspan><tspan class="cls-7" x="26.74" y="0">o</tspan><tspan class="cls-8" x="33.16" y="0">x</tspan></text>
  <g>
    <path class="cls-2" d="M293.06,291.65v-9.48h3.15l.92.91h7.25v8.57Z" transform="translate(-224.17 -222.54)"/>
    <path class="cls-3" d="M296.15,282.32l.82.83.09.09h7.17v8.26h-11v-9.18h2.94m.12-.31h-3.36v9.79h11.62v-8.87h-7.34l-.92-.92Z" transform="translate(-224.17 -222.54)"/>
    <path class="cls-4" d="M293.06,291.65v-8h3.26l.92-.61h7.14v8.57Z" transform="translate(-224.17 -222.54)"/>
    <path class="cls-3" d="M304.23,283.24v8.26h-11v-7.65h3.15l.08-.05.84-.56h7m.3-.31h-7.34l-.92.61h-3.36v8.26h11.62v-8.87Z" transform="translate(-224.17 -222.54)"/>
  </g>
  <text class="cls-5" transform="translate(83.96 69.21)"><tspan class="cls-6">t</tspan><tspan x="3.9" y="0">ools</tspan></text>
  <g>
    <path class="cls-2" d="M312.33,307.15v-9.49h3.15l.91.92h7.26v8.57Z" transform="translate(-224.17 -222.54)"/>
    <path class="cls-3" d="M315.41,297.82l.83.82.09.09h7.16V307h-11v-9.17h2.93m.13-.31h-3.36v9.79H323.8v-8.87h-7.34l-.92-.92Z" transform="translate(-224.17 -222.54)"/>
    <path class="cls-4" d="M312.33,307.15v-8h3.26l.91-.61h7.15v8.57Z" transform="translate(-224.17 -222.54)"/>
    <path class="cls-3" d="M323.49,298.73V307h-11v-7.64h3.15l.08-.06.84-.56h6.94m.31-.3h-7.34l-.92.61h-3.36v8.26H323.8v-8.87Z" transform="translate(-224.17 -222.54)"/>
  </g>
  <text class="cls-5" transform="translate(103.23 84.71)"><tspan class="cls-6">t</tspan><tspan x="3.9" y="0">ool</tspan></text>
  <g>
    <path class="cls-2" d="M269.92,271v-9.48h3.15l.92.91h7.25V271Z" transform="translate(-224.17 -222.54)"/>
    <path class="cls-3" d="M273,261.69l.83.83.09.09h7.16v8.26h-11v-9.18H273m.12-.31h-3.36v9.79h11.62V262.3h-7.34l-.92-.92Z" transform="translate(-224.17 -222.54)"/>
    <path class="cls-4" d="M269.92,271v-7.95h3.26l.92-.62h7.14V271Z" transform="translate(-224.17 -222.54)"/>
    <path class="cls-3" d="M281.09,262.61v8.26h-11v-7.65h3.15l.07-.05.84-.56h6.95m.3-.31h-7.34l-.92.61h-3.36v8.26h11.62V262.3Z" transform="translate(-224.17 -222.54)"/>
  </g>
  <text class="cls-5" transform="translate(60.82 48.58)"><tspan class="cls-6">t</tspan><tspan x="3.9" y="0">oolb</tspan><tspan class="cls-7" x="26.74" y="0">o</tspan><tspan class="cls-9" x="33.16" y="0">x</tspan><tspan class="cls-10" x="38.64" y="0">-</tspan><tspan x="42.54" y="0">default</tspan></text>
  <g>
    <path class="cls-2" d="M293.06,472.17v-9.49h3.15l.92.92h7.25v8.57Z" transform="translate(-224.17 -222.54)"/>
    <path class="cls-3" d="M296.15,462.84l.82.82.09.09h7.17V472h-11v-9.17h2.94m.12-.31h-3.36v9.79h11.62v-8.87h-7.34l-.92-.92Z" transform="translate(-224.17 -222.54)"/>
    <path class="cls-4" d="M293.06,472.17v-8h3.26l.92-.61h7.14v8.57Z" transform="translate(-224.17 -222.54)"/>
    <path class="cls-3" d="M304.23,463.75V472h-11v-7.65h3.15l.08-.05.84-.56h7m.3-.3h-7.34l-.92.61h-3.36v8.26h11.62v-8.87Z" transform="translate(-224.17 -222.54)"/>
  </g>
  <text class="cls-5" transform="translate(83.96 249.73)"><tspan class="cls-6">t</tspan><tspan x="3.9" y="0">ools</tspan></text>
  <g>
    <path class="cls-2" d="M293.06,489.21v-9.48h3.15l.92.91h7.25v8.57Z" transform="translate(-224.17 -222.54)"/>
    <path class="cls-3" d="M296.15,479.88l.82.83.09.09h7.17v8.26h-11v-9.18h2.94m.12-.31h-3.36v9.79h11.62v-8.87h-7.34l-.92-.92Z" transform="translate(-224.17 -222.54)"/>
    <path class="cls-4" d="M293.06,489.21v-7.95h3.26l.92-.62h7.14v8.57Z" transform="translate(-224.17 -222.54)"/>
    <path class="cls-3" d="M304.23,480.8v8.26h-11v-7.65h3.15l.08-.05.84-.56h7m.3-.31h-7.34l-.92.61h-3.36v8.26h11.62v-8.87Z" transform="translate(-224.17 -222.54)"/>
  </g>
  <text class="cls-5" transform="translate(83.96 266.77)">blocks</text>
  <g>
    <path class="cls-2" d="M269.92,451.54v-9.49h3.15l.92.92h7.25v8.57Z" transform="translate(-224.17 -222.54)"/>
    <path class="cls-3" d="M273,442.21l.83.82.09.09h7.16v8.26h-11v-9.17H273m.12-.31h-3.36v9.79h11.62v-8.87h-7.34l-.92-.92Z" transform="translate(-224.17 -222.54)"/>
    <path class="cls-4" d="M269.92,451.54v-8h3.26l.92-.61h7.14v8.57Z" transform="translate(-224.17 -222.54)"/>
    <path class="cls-3" d="M281.09,443.12v8.26h-11v-7.64h3.15l.07-.06.84-.56h6.95m.3-.3h-7.34l-.92.61h-3.36v8.26h11.62v-8.87Z" transform="translate(-224.17 -222.54)"/>
  </g>
  <text class="cls-5" transform="translate(60.82 229.1)"><tspan class="cls-11">y</tspan><tspan x="5.53" y="0">ou</tspan><tspan class="cls-12" x="18.73" y="0">r</tspan><tspan class="cls-13" x="22.49" y="0">T</tspan><tspan class="cls-14" x="27.6" y="0">oolb</tspan><tspan class="cls-12" x="50.44" y="0">o</tspan><tspan x="56.86" y="0">x</tspan><tspan class="cls-15" x="62.41" y="0">A</tspan><tspan x="69.61" y="0">ddon</tspan></text>
  <g>
    <path class="cls-2" d="M293.06,528.08v-9.49h3.15l.92.92h7.25v8.57Z" transform="translate(-224.17 -222.54)"/>
    <path class="cls-3" d="M296.15,518.75l.82.83.09.09h7.17v8.25h-11v-9.17h2.94m.12-.31h-3.36v9.79h11.62v-8.87h-7.34l-.92-.92Z" transform="translate(-224.17 -222.54)"/>
    <path class="cls-4" d="M293.06,528.08v-8h3.26l.92-.61h7.14v8.57Z" transform="translate(-224.17 -222.54)"/>
    <path class="cls-3" d="M304.23,519.67v8.25h-11v-7.64h3.15l.08,0,.84-.56h7m.3-.31h-7.34l-.92.61h-3.36v8.26h11.62v-8.87Z" transform="translate(-224.17 -222.54)"/>
  </g>
  <text class="cls-5" transform="translate(83.96 305.64)"><tspan class="cls-6">t</tspan><tspan x="3.9" y="0">ools</tspan></text>
  <g>
    <path class="cls-2" d="M293.06,546.32v-9.49h3.15l.92.92h7.25v8.57Z" transform="translate(-224.17 -222.54)"/>
    <path class="cls-3" d="M296.15,537l.82.83.09.08h7.17v8.26h-11V537h2.94m.12-.31h-3.36v9.79h11.62V537.6h-7.34l-.92-.92Z" transform="translate(-224.17 -222.54)"/>
    <path class="cls-4" d="M293.06,546.32v-8h3.26l.92-.61h7.14v8.57Z" transform="translate(-224.17 -222.54)"/>
    <path class="cls-3" d="M304.23,537.9v8.26h-11v-7.64h3.15l.08,0,.84-.57h7m.3-.3h-7.34l-.92.61h-3.36v8.26h11.62V537.6Z" transform="translate(-224.17 -222.54)"/>
  </g>
  <text class="cls-5" transform="translate(83.96 323.88)">i<tspan class="cls-16" x="2.81" y="0">n</tspan><tspan class="cls-6" x="9.42" y="0">t</tspan><tspan x="13.32" y="0">e</tspan><tspan class="cls-17" x="19.33" y="0">r</tspan><tspan x="23.62" y="0">fa</tspan><tspan class="cls-6" x="32.9" y="0">c</tspan><tspan x="38.21" y="0">es</tspan></text>
  <g>
    <path class="cls-2" d="M269.92,507.45V498h3.15l.92.91h7.25v8.57Z" transform="translate(-224.17 -222.54)"/>
    <path class="cls-3" d="M273,498.12l.83.83.09.09h7.16v8.26h-11v-9.18H273m.12-.31h-3.36v9.79h11.62v-8.87h-7.34l-.92-.92Z" transform="translate(-224.17 -222.54)"/>
    <path class="cls-4" d="M269.92,507.45V499.5h3.26l.92-.62h7.14v8.57Z" transform="translate(-224.17 -222.54)"/>
    <path class="cls-3" d="M281.09,499v8.26h-11v-7.65h3.15l.07,0,.84-.56h6.95m.3-.31h-7.34l-.92.61h-3.36v8.26h11.62v-8.87Z" transform="translate(-224.17 -222.54)"/>
  </g>
  <text class="cls-5" transform="translate(60.82 285.01)">some<tspan class="cls-18" x="27.36" y="0">O</tspan><tspan x="35.83" y="0">ther</tspan><tspan class="cls-19" x="56.4" y="0">A</tspan><tspan class="cls-8" x="63.6" y="0">ddon</tspan></text>
  <g>
    <path class="cls-2" d="M247.12,252.78V243.3h3.15l.92.91h7.25v8.57Z" transform="translate(-224.17 -222.54)"/>
    <path class="cls-3" d="M250.21,243.45l.83.83.09.09h7.16v8.26h-11v-9.18h2.93m.12-.31H247v9.79h11.62v-8.87h-7.34l-.92-.92Z" transform="translate(-224.17 -222.54)"/>
    <path class="cls-4" d="M247.12,252.78v-7.95h3.26l.92-.62h7.14v8.57Z" transform="translate(-224.17 -222.54)"/>
    <path class="cls-3" d="M258.29,244.37v8.26h-11V245h3.15l.07,0,.85-.56h6.94m.3-.31h-7.34l-.92.61H247v8.26h11.62v-8.87Z" transform="translate(-224.17 -222.54)"/>
  </g>
  <text class="cls-5" transform="translate(38.02 30.34)">addons</text>
  <g>
    <path class="cls-2" d="M247.12,565.89v-9.48h3.15l.92.91h7.25v8.57Z" transform="translate(-224.17 -222.54)"/>
    <path class="cls-3" d="M250.21,556.56l.83.83.09.09h7.16v8.26h-11v-9.18h2.93m.12-.31H247V566h11.62v-8.87h-7.34l-.92-.92Z" transform="translate(-224.17 -222.54)"/>
    <path class="cls-4" d="M247.12,565.89v-7.95h3.26l.92-.62h7.14v8.57Z" transform="translate(-224.17 -222.54)"/>
    <path class="cls-3" d="M258.29,557.48v8.26h-11v-7.65h3.15l.07-.05.85-.56h6.94m.3-.31h-7.34l-.92.61H247V566h11.62v-8.87Z" transform="translate(-224.17 -222.54)"/>
  </g>
  <text class="cls-5" transform="translate(38.02 343.45)">ide<tspan class="cls-20" x="15.59" y="0">n</tspan><tspan class="cls-14" x="22.2" y="0">ti</tspan><tspan class="cls-21" x="28.98" y="0">t</tspan><tspan x="33.06" y="0">y</tspan></text>
  <text class="cls-5" transform="translate(88.31 89.23)">.</text>
  <text class="cls-5" transform="translate(88.31 92.56)">.</text>
  <text class="cls-5" transform="translate(88.31 95.48)">.</text>
  <g>
    <path class="cls-2" d="M293.06,331.21v-9.48h3.15l.92.92h7.25v8.56Z" transform="translate(-224.17 -222.54)"/>
    <path class="cls-3" d="M296.15,321.88l.82.83.09.09h7.17v8.26h-11v-9.18h2.94m.12-.3h-3.36v9.78h11.62v-8.87h-7.34l-.92-.91Z" transform="translate(-224.17 -222.54)"/>
    <path class="cls-4" d="M293.06,331.21v-7.95h3.26l.92-.61h7.14v8.56Z" transform="translate(-224.17 -222.54)"/>
    <path class="cls-3" d="M304.23,322.8v8.26h-11v-7.65h3.15l.08-.05.84-.56h7m.3-.31h-7.34l-.92.61h-3.36v8.26h11.62v-8.87Z" transform="translate(-224.17 -222.54)"/>
  </g>
  <text class="cls-5" transform="translate(83.96 108.78)">i<tspan class="cls-16" x="2.81" y="0">n</tspan><tspan class="cls-6" x="9.42" y="0">t</tspan><tspan x="13.32" y="0">e</tspan><tspan class="cls-17" x="19.33" y="0">r</tspan><tspan x="23.62" y="0">fa</tspan><tspan class="cls-6" x="32.9" y="0">c</tspan><tspan x="38.21" y="0">es</tspan></text>
  <g>
    <path class="cls-2" d="M312.33,346.71v-9.48h3.15l.91.91h7.26v8.57Z" transform="translate(-224.17 -222.54)"/>
    <path class="cls-3" d="M315.41,337.38l.83.83.09.09h7.16v8.26h-11v-9.18h2.93m.13-.31h-3.36v9.79H323.8V338h-7.34l-.92-.92Z" transform="translate(-224.17 -222.54)"/>
    <path class="cls-4" d="M312.33,346.71v-7.95h3.26l.91-.62h7.15v8.57Z" transform="translate(-224.17 -222.54)"/>
    <path class="cls-3" d="M323.49,338.3v8.26h-11v-7.65h3.15l.08-.05.84-.56h6.94m.31-.31h-7.34l-.92.61h-3.36v8.26H323.8V338Z" transform="translate(-224.17 -222.54)"/>
  </g>
  <text class="cls-5" transform="translate(103.23 124.27)">i<tspan class="cls-16" x="2.81" y="0">n</tspan><tspan class="cls-6" x="9.42" y="0">t</tspan><tspan x="13.32" y="0">e</tspan><tspan class="cls-17" x="19.33" y="0">r</tspan><tspan x="23.62" y="0">fa</tspan><tspan class="cls-6" x="32.9" y="0">c</tspan><tspan x="38.21" y="0">e</tspan></text>
  <text class="cls-5" transform="translate(88.31 128.18)">.</text>
  <text class="cls-5" transform="translate(88.31 131.51)">.</text>
  <text class="cls-5" transform="translate(88.31 134.44)">.</text>
  <g>
    <path class="cls-2" d="M293.06,371.81v-9.48h3.15l.92.92h7.25v8.56Z" transform="translate(-224.17 -222.54)"/>
    <path class="cls-3" d="M296.15,362.48l.82.83.09.09h7.17v8.26h-11v-9.18h2.94m.12-.3h-3.36V372h11.62v-8.87h-7.34l-.92-.91Z" transform="translate(-224.17 -222.54)"/>
    <path class="cls-4" d="M293.06,371.81v-7.95h3.26l.92-.61h7.14v8.56Z" transform="translate(-224.17 -222.54)"/>
    <path class="cls-3" d="M304.23,363.4v8.26h-11V364h3.15l.08-.05.84-.56h7m.3-.31h-7.34l-.92.61h-3.36V372h11.62v-8.87Z" transform="translate(-224.17 -222.54)"/>
  </g>
  <text class="cls-5" transform="translate(83.96 149.37)">nodes</text>
  <g>
    <path class="cls-2" d="M312.33,387.31v-9.48h3.15l.91.91h7.26v8.57Z" transform="translate(-224.17 -222.54)"/>
    <path class="cls-3" d="M315.41,378l.83.83.09.09h7.16v8.26h-11V378h2.93m.13-.31h-3.36v9.79H323.8v-8.87h-7.34l-.92-.92Z" transform="translate(-224.17 -222.54)"/>
    <path class="cls-4" d="M312.33,387.31v-7.95h3.26l.91-.62h7.15v8.57Z" transform="translate(-224.17 -222.54)"/>
    <path class="cls-3" d="M323.49,378.9v8.26h-11v-7.65h3.15l.08-.05.84-.56h6.94m.31-.31h-7.34l-.92.61h-3.36v8.26H323.8v-8.87Z" transform="translate(-224.17 -222.54)"/>
  </g>
  <text class="cls-5" transform="translate(103.23 164.87)">node</text>
  <text class="cls-5" transform="translate(88.31 168.58)">.</text>
  <text class="cls-5" transform="translate(88.31 171.91)">.</text>
  <text class="cls-5" transform="translate(88.31 174.84)">.</text>
  <text class="cls-5" transform="translate(88.31 213.84)">.</text>
  <g>
    <path class="cls-2" d="M293.06,411.89V402.4h3.15l.92.92h7.25v8.57Z" transform="translate(-224.17 -222.54)"/>
    <path class="cls-3" d="M296.15,402.56l.82.82.09.09h7.17v8.26h-11v-9.17h2.94m.12-.31h-3.36V412h11.62v-8.87h-7.34l-.92-.92Z" transform="translate(-224.17 -222.54)"/>
    <path class="cls-4" d="M293.06,411.89v-8h3.26l.92-.61h7.14v8.57Z" transform="translate(-224.17 -222.54)"/>
    <path class="cls-3" d="M304.23,403.47v8.26h-11v-7.64h3.15l.08-.06.84-.56h7m.3-.3h-7.34l-.92.61h-3.36V412h11.62v-8.87Z" transform="translate(-224.17 -222.54)"/>
  </g>
  <text class="cls-5" transform="translate(83.96 189.45)">blocks</text>
  <g>
    <path class="cls-2" d="M312.33,427.38V417.9h3.15l.91.92h7.26v8.56Z" transform="translate(-224.17 -222.54)"/>
    <path class="cls-3" d="M315.41,418.05l.83.83.09.09h7.16v8.26h-11v-9.18h2.93m.13-.3h-3.36v9.79H323.8v-8.87h-7.34l-.92-.92Z" transform="translate(-224.17 -222.54)"/>
    <path class="cls-4" d="M312.33,427.38v-7.95h3.26l.91-.61h7.15v8.56Z" transform="translate(-224.17 -222.54)"/>
    <path class="cls-3" d="M323.49,419v8.26h-11v-7.65h3.15l.08-.05.84-.56h6.94m.31-.3h-7.34l-.92.61h-3.36v8.26H323.8v-8.87Z" transform="translate(-224.17 -222.54)"/>
  </g>
  <text class="cls-5" transform="translate(103.23 204.95)">block</text>
  <text class="cls-5" transform="translate(88.31 208.08)">.</text>
  <text class="cls-5" transform="translate(88.31 211.01)">.</text>
  <line class="cls-1" x1="5.81" y1="10.09" x2="5.81" y2="339.07"/>
  <line class="cls-1" x1="28.61" y1="30.39" x2="28.61" y2="280.62"/>
  <line class="cls-1" x1="45.6" y1="280.62" x2="28.61" y2="280.62"/>
  <line class="cls-1" x1="45.6" y1="224.71" x2="28.61" y2="224.71"/>
  <line class="cls-1" x1="45.6" y1="44.2" x2="28.61" y2="44.2"/>
  <line class="cls-1" x1="51.41" y1="48.63" x2="51.41" y2="185.06"/>
  <line class="cls-1" x1="68.74" y1="185.06" x2="51.41" y2="185.06"/>
  <line class="cls-1" x1="68.74" y1="144.99" x2="51.41" y2="144.99"/>
  <line class="cls-1" x1="68.74" y1="103.93" x2="51.41" y2="103.93"/>
  <line class="cls-1" x1="68.74" y1="64.82" x2="51.41" y2="64.82"/>
  <line class="cls-1" x1="74.55" y1="69.26" x2="74.55" y2="79.86"/>
  <line class="cls-1" x1="88" y1="79.86" x2="74.55" y2="79.86"/>
  <line class="cls-1" x1="74.55" y1="108.52" x2="74.55" y2="119.89"/>
  <line class="cls-1" x1="88" y1="119.89" x2="74.55" y2="119.89"/>
  <line class="cls-1" x1="74.55" y1="149.37" x2="74.55" y2="160.49"/>
  <line class="cls-1" x1="88" y1="160.49" x2="74.55" y2="160.49"/>
  <line class="cls-1" x1="74.55" y1="189.5" x2="74.55" y2="200.56"/>
  <line class="cls-1" x1="88" y1="200.56" x2="74.55" y2="200.56"/>
  <line class="cls-1" x1="51.41" y1="229.1" x2="51.41" y2="262.39"/>
  <line class="cls-1" x1="68.89" y1="262.39" x2="51.41" y2="262.39"/>
  <line class="cls-1" x1="68.74" y1="245.34" x2="51.41" y2="245.34"/>
  <line class="cls-1" x1="51.41" y1="284.91" x2="51.41" y2="319.49"/>
  <line class="cls-1" x1="68.74" y1="319.49" x2="51.41" y2="319.49"/>
  <line class="cls-1" x1="68.74" y1="301.25" x2="51.41" y2="301.25"/>
</svg>
